<svg width="353" height="214" viewBox="0 0 353 214" fill="none" xmlns="http://www.w3.org/2000/svg">
<rect width="352.299" height="214" rx="23.2925" fill="url(#paint0_linear_1228_7)"/>
<path d="M28.5336 48.3809V47.915L30.3679 46.9542L37.8506 29.019H39.452L46.8474 46.8668L48.7981 47.915V48.3809H41.1116V47.915L43.6738 46.896L41.5192 41.6551H34.5023L32.3769 46.9251L34.8226 47.915V48.3809H28.5336ZM35.172 40.0538H40.8787L38.0253 33.0369L35.172 40.0538ZM50.6053 48.3809V47.915L52.4396 46.9833V29.8633L50.6927 28.3784V28.1455L54.9727 26.5441H55.2056V46.9833L57.0108 47.915V48.3809H50.6053ZM65.71 48.672C63.8078 48.672 62.3035 48.0994 61.1971 46.9542C60.0907 45.809 59.5375 44.2853 59.5375 42.383C59.5375 40.9467 59.8286 39.6656 60.4109 38.5398C61.0127 37.414 61.7988 36.5405 62.7693 35.9194C63.7592 35.2788 64.8268 34.9585 65.972 34.9585C67.5249 34.9585 68.738 35.4923 69.6115 36.5599C70.485 37.6081 70.9314 39.1221 70.9508 41.1019L70.8052 41.2475H62.2161C62.2355 42.1404 62.4005 42.9653 62.7111 43.7224C63.041 44.4794 63.5554 45.0908 64.2542 45.5566C64.9724 46.0225 65.9332 46.2554 67.1367 46.2554C68.243 46.2554 69.495 45.8866 70.8926 45.149H70.9799V45.4984C70.5141 46.3913 69.825 47.1483 68.9127 47.7694C68.0004 48.3712 66.9328 48.672 65.71 48.672ZM65.4479 36.2396C64.5939 36.2396 63.8854 36.5599 63.3225 37.2005C62.779 37.841 62.4296 38.7436 62.2743 39.9082H68.476C68.2819 38.5883 67.9325 37.6469 67.4278 37.084C66.9231 36.5211 66.2632 36.2396 65.4479 36.2396ZM73.7257 48.3809V47.915L75.5891 46.9833V38.3068L73.813 36.8219V36.589L77.831 34.9585H78.0639L78.3259 37.4625H78.4424C78.8888 36.7249 79.2965 36.1814 79.6653 35.832C80.034 35.4632 80.3834 35.2303 80.7134 35.1332C81.0434 35.0168 81.3831 34.9585 81.7325 34.9585C81.9072 34.9585 82.0916 34.9877 82.2857 35.0459C82.4992 35.0847 82.6739 35.1332 82.8097 35.1915C83.0427 35.2885 83.2465 35.405 83.4212 35.5409C83.5959 35.6767 83.6832 35.832 83.6832 36.0067C83.6832 36.1814 83.6444 36.3561 83.5667 36.5308L82.9553 38.0739H82.7515L81.7325 37.6663C81.4995 37.5887 81.2763 37.5401 81.0628 37.5207C80.8493 37.4819 80.6358 37.4625 80.4223 37.4625C79.5876 37.4625 78.8985 37.8604 78.355 38.6562V46.9833L80.4805 47.915V48.3809H73.7257ZM90.272 48.672C89.3403 48.672 88.5445 48.4197 87.8845 47.915C87.244 47.4103 86.9237 46.7019 86.9237 45.7896V36.589H84.5944V36.3561L87.1275 35.2497L89.3985 32.047H89.6606V35.2497H93.5329V36.589H89.6606V45.2364C89.6606 45.741 89.8741 46.1098 90.3011 46.3428C90.7475 46.5757 91.2716 46.6922 91.8733 46.6922C92.2421 46.6922 92.5818 46.6727 92.8924 46.6339C93.203 46.5951 93.4844 46.5466 93.7367 46.4883H93.8241V46.8377C93.5912 47.2842 93.1641 47.7015 92.543 48.0897C91.9413 48.4779 91.1843 48.672 90.272 48.672ZM100.85 48.672C99.9181 48.672 99.1126 48.5847 98.4332 48.41C97.7733 48.2547 97.1036 48.0024 96.4243 47.653V44.392H96.861L97.7927 45.9643C98.4332 47.0318 99.4232 47.5656 100.762 47.5656C101.539 47.5656 102.131 47.3909 102.539 47.0415C102.966 46.6922 103.179 46.2069 103.179 45.5858C103.179 45.0811 103.043 44.6735 102.771 44.3629C102.519 44.0523 102.141 43.7806 101.636 43.5477C101.151 43.3147 100.559 43.0333 99.8599 42.7033C98.8506 42.2569 98.0741 41.7619 97.5307 41.2184C97.0066 40.6749 96.7445 39.9276 96.7445 38.9765C96.7445 38.2195 96.9483 37.5401 97.356 36.9384C97.783 36.3367 98.3265 35.8611 98.9864 35.5117C99.6464 35.1429 100.345 34.9585 101.083 34.9585C101.782 34.9585 102.441 35.0459 103.063 35.2206C103.684 35.3759 104.295 35.6088 104.897 35.9194V39.1512H104.489L103.528 37.6372C102.888 36.6278 102.102 36.1232 101.17 36.1232C100.53 36.1232 100.015 36.2882 99.627 36.6181C99.2388 36.9287 99.0447 37.3654 99.0447 37.9283C99.0447 38.5495 99.2679 39.0347 99.7143 39.3841C100.18 39.7141 100.898 40.0926 101.869 40.5196C102.432 40.772 102.985 41.0437 103.528 41.3349C104.072 41.6066 104.518 41.9948 104.868 42.4995C105.237 42.9848 105.421 43.6835 105.421 44.5958C105.421 45.4887 105.178 46.236 104.693 46.8377C104.227 47.4395 103.645 47.8956 102.946 48.2062C102.247 48.5167 101.549 48.672 100.85 48.672Z" fill="white"/>
<path d="M30.764 86.12C29.972 86.12 29.28 85.952 28.688 85.616C28.104 85.28 27.648 84.82 27.32 84.236C27 83.652 26.84 82.992 26.84 82.256C26.84 81.672 26.948 81.12 27.164 80.6C27.38 80.08 27.676 79.624 28.052 79.232C28.436 78.832 28.876 78.52 29.372 78.296C29.868 78.072 30.396 77.96 30.956 77.96C31.348 77.96 31.68 77.988 31.952 78.044C32.232 78.092 32.48 78.16 32.696 78.248C32.92 78.336 33.144 78.432 33.368 78.536L33.416 80.54H33.188L32.564 79.112C32.252 78.896 31.972 78.736 31.724 78.632C31.476 78.52 31.2 78.464 30.896 78.464C30.288 78.464 29.748 78.612 29.276 78.908C28.812 79.204 28.444 79.608 28.172 80.12C27.9 80.632 27.764 81.208 27.764 81.848C27.764 82.616 27.9 83.284 28.172 83.852C28.444 84.412 28.808 84.844 29.264 85.148C29.728 85.452 30.248 85.604 30.824 85.604C31.232 85.604 31.58 85.548 31.868 85.436C32.156 85.324 32.412 85.192 32.636 85.04L33.332 83.672H33.548L33.428 85.532C33.196 85.652 32.956 85.756 32.708 85.844C32.468 85.932 32.192 86 31.88 86.048C31.576 86.096 31.204 86.12 30.764 86.12ZM35.3204 86V85.808L36.0764 85.508V81.524L35.2964 81.116V80.984L36.7004 80.48H36.7964L36.8804 81.524H36.9164C37.1564 81.212 37.3564 80.984 37.5164 80.84C37.6844 80.688 37.8364 80.592 37.9724 80.552C38.1084 80.504 38.2444 80.48 38.3804 80.48C38.4444 80.48 38.5164 80.492 38.5964 80.516C38.6764 80.532 38.7404 80.552 38.7884 80.576C38.8764 80.608 38.9484 80.648 39.0044 80.696C39.0604 80.744 39.0884 80.796 39.0884 80.852C39.0884 80.876 39.0844 80.904 39.0764 80.936C39.0764 80.968 39.0684 81 39.0524 81.032L38.8604 81.512H38.8004L38.4404 81.356C38.2964 81.3 38.1364 81.272 37.9604 81.272C37.7604 81.272 37.5724 81.324 37.3964 81.428C37.2204 81.532 37.0524 81.704 36.8924 81.944V85.508L37.7684 85.808V86H35.3204ZM40.9945 78.848C40.8185 78.848 40.6705 78.792 40.5505 78.68C40.4385 78.56 40.3825 78.412 40.3825 78.236C40.3825 78.052 40.4385 77.904 40.5505 77.792C40.6705 77.68 40.8185 77.624 40.9945 77.624C41.1785 77.624 41.3265 77.68 41.4385 77.792C41.5505 77.904 41.6065 78.052 41.6065 78.236C41.6065 78.412 41.5505 78.56 41.4385 78.68C41.3265 78.792 41.1785 78.848 40.9945 78.848ZM39.9265 86V85.808L40.6825 85.508V81.524L39.9025 81.056V80.936L41.4025 80.48H41.4985V85.508L42.2905 85.808V86H39.9265ZM45.3699 86.12C45.0259 86.12 44.7339 86.016 44.4939 85.808C44.2619 85.6 44.1459 85.308 44.1459 84.932V81.104H43.1379V81.008L44.2059 80.6L44.8659 79.28H44.9619V80.6H46.5459V81.104H44.9619V84.8C44.9619 85.024 45.0459 85.192 45.2139 85.304C45.3819 85.408 45.5939 85.46 45.8499 85.46C46.0099 85.46 46.1579 85.448 46.2939 85.424C46.4299 85.392 46.5539 85.356 46.6659 85.316L46.6899 85.328V85.412C46.6099 85.572 46.4579 85.732 46.2339 85.892C46.0179 86.044 45.7299 86.12 45.3699 86.12ZM48.8109 78.848C48.6349 78.848 48.4869 78.792 48.3669 78.68C48.2549 78.56 48.1989 78.412 48.1989 78.236C48.1989 78.052 48.2549 77.904 48.3669 77.792C48.4869 77.68 48.6349 77.624 48.8109 77.624C48.9949 77.624 49.1429 77.68 49.2549 77.792C49.3669 77.904 49.4229 78.052 49.4229 78.236C49.4229 78.412 49.3669 78.56 49.2549 78.68C49.1429 78.792 48.9949 78.848 48.8109 78.848ZM47.7429 86V85.808L48.4989 85.508V81.524L47.7189 81.056V80.936L49.2189 80.48H49.3149V85.508L50.1069 85.808V86H47.7429ZM53.8703 86.12C53.3343 86.12 52.8783 86.008 52.5023 85.784C52.1263 85.56 51.8383 85.252 51.6383 84.86C51.4383 84.46 51.3383 84 51.3383 83.48C51.3383 82.904 51.4543 82.392 51.6863 81.944C51.9263 81.488 52.2503 81.132 52.6583 80.876C53.0743 80.612 53.5423 80.48 54.0623 80.48C54.3823 80.48 54.6823 80.532 54.9623 80.636C55.2503 80.732 55.4703 80.852 55.6223 80.996C55.7103 81.084 55.7743 81.16 55.8143 81.224C55.8623 81.288 55.8863 81.348 55.8863 81.404C55.8863 81.492 55.8463 81.568 55.7663 81.632L55.3583 81.968H55.2863L54.9863 81.56C54.8423 81.368 54.6743 81.212 54.4823 81.092C54.2903 80.964 54.0543 80.9 53.7743 80.9C53.2863 80.9 52.8903 81.092 52.5863 81.476C52.2903 81.852 52.1423 82.392 52.1423 83.096C52.1423 83.512 52.2143 83.896 52.3583 84.248C52.5023 84.592 52.7263 84.868 53.0303 85.076C53.3423 85.276 53.7463 85.376 54.2423 85.376C54.8343 85.376 55.3783 85.2 55.8743 84.848H55.9103V84.98C55.7263 85.3 55.4583 85.572 55.1063 85.796C54.7543 86.012 54.3423 86.12 53.8703 86.12ZM57.0213 86V85.808L57.7773 85.508V78.044L56.9973 77.576V77.456L58.4973 77H58.5933V85.508L59.3853 85.808V86H57.0213ZM63.0581 86.12C62.5221 86.12 62.0621 86.008 61.6781 85.784C61.3021 85.56 61.0141 85.252 60.8141 84.86C60.6141 84.46 60.5141 84 60.5141 83.48C60.5141 82.904 60.6301 82.392 60.8621 81.944C61.0941 81.488 61.4021 81.132 61.7861 80.876C62.1701 80.612 62.5861 80.48 63.0341 80.48C63.6661 80.48 64.1621 80.696 64.5221 81.128C64.8821 81.56 65.0741 82.168 65.0981 82.952L65.0501 83H61.3181C61.3181 83.032 61.3181 83.064 61.3181 83.096C61.3181 83.512 61.3901 83.896 61.5341 84.248C61.6781 84.592 61.9061 84.868 62.2181 85.076C62.5301 85.276 62.9341 85.376 63.4301 85.376C64.0221 85.376 64.5661 85.2 65.0621 84.848H65.0981V84.98C64.9221 85.3 64.6541 85.572 64.2941 85.796C63.9421 86.012 63.5301 86.12 63.0581 86.12ZM62.8541 80.9C62.4701 80.9 62.1421 81.048 61.8701 81.344C61.5981 81.632 61.4261 82.04 61.3541 82.568H64.2821C64.1221 81.456 63.6461 80.9 62.8541 80.9Z" fill="white"/>
<path d="M91.78 96V95.76L92.728 95.4V88.68L91.78 88.32V88.08H94.648V88.32L93.664 88.68V91.632H97.924V88.68L96.94 88.32V88.08H99.808V88.32L98.86 88.68V95.4L99.808 95.76V96H96.94V95.76L97.924 95.4V92.196H93.664V95.4L94.648 95.76V96H91.78ZM102.35 88.848C102.174 88.848 102.026 88.792 101.906 88.68C101.794 88.56 101.738 88.412 101.738 88.236C101.738 88.052 101.794 87.904 101.906 87.792C102.026 87.68 102.174 87.624 102.35 87.624C102.534 87.624 102.682 87.68 102.794 87.792C102.906 87.904 102.962 88.052 102.962 88.236C102.962 88.412 102.906 88.56 102.794 88.68C102.682 88.792 102.534 88.848 102.35 88.848ZM101.282 96V95.808L102.038 95.508V91.524L101.258 91.056V90.936L102.758 90.48H102.854V95.508L103.646 95.808V96H101.282ZM107.241 94.248C106.937 94.248 106.657 94.196 106.401 94.092C106.185 94.172 106.037 94.268 105.957 94.38C105.877 94.492 105.837 94.62 105.837 94.764C105.837 94.996 105.913 95.168 106.065 95.28C106.225 95.384 106.477 95.436 106.821 95.436H108.225C108.761 95.436 109.161 95.56 109.425 95.808C109.697 96.048 109.833 96.396 109.833 96.852C109.833 97.188 109.717 97.508 109.485 97.812C109.261 98.124 108.941 98.38 108.525 98.58C108.117 98.78 107.633 98.88 107.073 98.88C106.337 98.88 105.809 98.74 105.489 98.46C105.169 98.188 105.009 97.852 105.009 97.452C105.009 97.164 105.077 96.908 105.213 96.684L106.005 96.108V96.072C105.725 96.008 105.509 95.892 105.357 95.724C105.205 95.548 105.129 95.34 105.129 95.1C105.129 94.804 105.225 94.564 105.417 94.38L106.089 94.008V93.936C105.817 93.768 105.601 93.548 105.441 93.276C105.289 93.004 105.213 92.7 105.213 92.364C105.213 92.004 105.301 91.684 105.477 91.404C105.653 91.116 105.893 90.892 106.197 90.732C106.501 90.564 106.849 90.48 107.241 90.48C107.409 90.48 107.589 90.5 107.781 90.54C107.981 90.58 108.153 90.632 108.297 90.696L110.037 90.6V91.188L108.873 91.104L108.837 91.14C108.965 91.284 109.069 91.468 109.149 91.692C109.229 91.916 109.269 92.14 109.269 92.364C109.269 92.724 109.181 93.048 109.005 93.336C108.829 93.616 108.589 93.84 108.285 94.008C107.981 94.168 107.633 94.248 107.241 94.248ZM107.361 93.864C107.689 93.864 107.949 93.728 108.141 93.456C108.333 93.176 108.429 92.824 108.429 92.4C108.429 91.912 108.305 91.532 108.057 91.26C107.817 90.988 107.517 90.852 107.157 90.852C106.805 90.852 106.529 90.996 106.329 91.284C106.137 91.564 106.041 91.912 106.041 92.328C106.041 92.8 106.165 93.176 106.413 93.456C106.661 93.728 106.977 93.864 107.361 93.864ZM105.741 97.32C105.741 97.68 105.885 97.976 106.173 98.208C106.461 98.448 106.813 98.568 107.229 98.568C107.597 98.568 107.921 98.496 108.201 98.352C108.481 98.216 108.701 98.032 108.861 97.8C109.021 97.576 109.101 97.336 109.101 97.08C109.101 96.712 109.005 96.46 108.813 96.324C108.621 96.188 108.277 96.12 107.781 96.12H106.509C106.445 96.12 106.385 96.116 106.329 96.108C106.105 96.244 105.949 96.408 105.861 96.6C105.781 96.8 105.741 97.04 105.741 97.32ZM111.194 96V95.808L111.95 95.508V88.044L111.17 87.576V87.456L112.67 87H112.766V91.356H112.802C113.106 91.06 113.394 90.84 113.666 90.696C113.946 90.552 114.254 90.48 114.59 90.48C115.07 90.48 115.466 90.608 115.778 90.864C116.09 91.12 116.246 91.492 116.246 91.98V95.508L117.002 95.808V96H114.578V95.808L115.43 95.52V92.448C115.43 92.04 115.31 91.732 115.07 91.524C114.83 91.308 114.522 91.2 114.146 91.2C113.922 91.2 113.674 91.248 113.402 91.344C113.138 91.432 112.926 91.56 112.766 91.728V95.52L113.618 95.808V96H111.194Z" fill="white"/>
<path d="M149.78 106V105.76L150.728 105.4V98.68L149.78 98.32V98.08H152.744V98.32L151.664 98.68V105.436H154.712L155.432 103.384H155.636V106H149.78ZM159.598 106.12C159.086 106.12 158.638 105.996 158.254 105.748C157.87 105.5 157.57 105.164 157.354 104.74C157.138 104.316 157.03 103.836 157.03 103.3C157.03 102.764 157.138 102.284 157.354 101.86C157.57 101.436 157.87 101.1 158.254 100.852C158.638 100.604 159.086 100.48 159.598 100.48C160.11 100.48 160.558 100.604 160.942 100.852C161.326 101.1 161.626 101.436 161.842 101.86C162.058 102.284 162.166 102.764 162.166 103.3C162.166 103.836 162.058 104.316 161.842 104.74C161.626 105.164 161.326 105.5 160.942 105.748C160.558 105.996 160.11 106.12 159.598 106.12ZM159.766 105.7C160.102 105.7 160.382 105.596 160.606 105.388C160.83 105.18 160.998 104.912 161.11 104.584C161.222 104.248 161.278 103.9 161.278 103.54C161.278 103.084 161.21 102.656 161.074 102.256C160.946 101.848 160.746 101.52 160.474 101.272C160.21 101.016 159.87 100.888 159.454 100.888C159.118 100.888 158.834 100.988 158.602 101.188C158.378 101.388 158.206 101.652 158.086 101.98C157.974 102.308 157.918 102.664 157.918 103.048C157.918 103.512 157.986 103.948 158.122 104.356C158.258 104.756 158.462 105.08 158.734 105.328C159.006 105.576 159.35 105.7 159.766 105.7ZM165.12 106.024L163.32 101.104L162.54 100.792V100.6H165.18V100.792L164.22 101.08V101.14L165.48 104.812H165.516L167.22 100.6H167.436L169.14 104.776H169.188L170.412 101.188V101.128L169.5 100.792V100.6H171.756V100.792L170.916 101.128L169.02 106.024H168.816L167.1 101.92L165.324 106.024H165.12Z" fill="white"/>
<rect x="222.734" y="139.756" width="106.272" height="33.483" rx="16.7415" fill="black" fill-opacity="0.81"/>
<path d="M245.304 161.386C244.466 161.386 243.714 161.275 243.051 161.054C242.387 160.821 241.863 160.495 241.478 160.075C241.094 159.656 240.902 159.161 240.902 158.591C240.902 158.299 240.96 157.997 241.077 157.682C241.193 157.356 241.409 157.042 241.723 156.739C242.037 156.424 242.486 156.139 243.068 155.883C242.393 155.417 241.933 154.945 241.688 154.468C241.455 153.979 241.339 153.42 241.339 152.791C241.339 152.185 241.531 151.638 241.915 151.149C242.311 150.648 242.835 150.252 243.487 149.961C244.14 149.658 244.867 149.506 245.671 149.506C246.358 149.506 246.987 149.623 247.558 149.856C248.128 150.089 248.583 150.409 248.92 150.817C249.27 151.224 249.444 151.69 249.444 152.214C249.444 152.692 249.241 153.123 248.833 153.507C248.425 153.891 247.919 154.229 247.313 154.52C248.291 155.056 248.979 155.586 249.375 156.11C249.782 156.622 249.986 157.205 249.986 157.857C249.986 158.486 249.8 159.068 249.427 159.604C249.054 160.139 248.519 160.57 247.82 160.896C247.121 161.223 246.282 161.386 245.304 161.386ZM244.204 151.708C244.204 151.952 244.244 152.191 244.326 152.424C244.419 152.657 244.623 152.907 244.937 153.175C245.252 153.431 245.747 153.728 246.422 154.066C246.644 153.856 246.824 153.583 246.964 153.245C247.104 152.907 247.173 152.54 247.173 152.144C247.173 151.515 247.022 151.055 246.719 150.764C246.428 150.461 246.073 150.31 245.654 150.31C245.211 150.31 244.856 150.438 244.588 150.694C244.332 150.939 244.204 151.277 244.204 151.708ZM243.295 158.433C243.295 159.074 243.476 159.592 243.837 159.988C244.209 160.384 244.664 160.582 245.199 160.582C245.758 160.582 246.183 160.436 246.475 160.145C246.777 159.854 246.929 159.487 246.929 159.045C246.929 158.8 246.894 158.585 246.824 158.398C246.766 158.212 246.638 158.032 246.44 157.857C246.253 157.682 245.968 157.484 245.584 157.263C245.211 157.042 244.71 156.774 244.081 156.459C244.035 156.436 243.994 156.413 243.959 156.389C243.738 156.552 243.569 156.809 243.452 157.158C243.348 157.507 243.295 157.933 243.295 158.433ZM253.194 161.211V160.931L254.923 160.372V151.9L252.128 153.07V152.302L256.583 149.681H258.155V160.372L259.71 160.931V161.211H253.194ZM263.598 161.298C263.202 161.298 262.859 161.159 262.568 160.879C262.288 160.588 262.148 160.244 262.148 159.848C262.148 159.452 262.288 159.115 262.568 158.835C262.859 158.544 263.202 158.398 263.598 158.398C263.994 158.398 264.332 158.544 264.612 158.835C264.903 159.115 265.048 159.452 265.048 159.848C265.048 160.244 264.903 160.588 264.612 160.879C264.332 161.159 263.994 161.298 263.598 161.298ZM268.25 161.211C268.588 160.396 269.013 159.511 269.525 158.556C270.049 157.601 270.626 156.611 271.255 155.586C271.884 154.549 272.536 153.513 273.211 152.476H267.097V149.681H275.308V150.555C274.737 151.649 274.172 152.791 273.613 153.979C273.054 155.167 272.542 156.372 272.076 157.595C271.622 158.818 271.272 160.023 271.028 161.211H268.25ZM277.432 161.211V160.425C278.329 159.493 279.074 158.707 279.668 158.066C280.274 157.426 280.757 156.873 281.118 156.407C281.479 155.929 281.753 155.487 281.939 155.079C282.126 154.672 282.248 154.241 282.306 153.786C282.364 153.332 282.393 152.802 282.393 152.197C282.393 151.894 282.353 151.609 282.271 151.341C282.201 151.061 282.067 150.84 281.869 150.677C281.683 150.502 281.421 150.415 281.083 150.415C280.559 150.415 280.169 150.595 279.913 150.956C279.657 151.317 279.528 151.824 279.528 152.476V153.332L279.389 153.507H277.939C277.706 153.507 277.531 153.466 277.415 153.385C277.298 153.303 277.24 153.099 277.24 152.773C277.24 152.412 277.351 152.051 277.572 151.69C277.805 151.329 278.201 150.945 278.76 150.537C279.226 150.199 279.692 149.943 280.157 149.768C280.623 149.594 281.229 149.506 281.974 149.506C282.743 149.506 283.418 149.646 284.001 149.926C284.583 150.194 285.031 150.56 285.346 151.026C285.672 151.492 285.835 152.016 285.835 152.599C285.835 152.936 285.794 153.262 285.713 153.577C285.631 153.88 285.48 154.2 285.258 154.538C285.037 154.864 284.717 155.231 284.298 155.638C283.878 156.034 283.331 156.5 282.656 157.036C281.98 157.571 281.141 158.195 280.14 158.905H284.961L286.062 157.141H286.342L286.167 161.211H277.432ZM290.405 155.184C289.532 155.184 288.833 154.87 288.309 154.241C287.785 153.612 287.523 152.744 287.523 151.638C287.523 150.962 287.645 150.362 287.89 149.838C288.146 149.303 288.489 148.883 288.92 148.581C289.363 148.266 289.858 148.109 290.405 148.109C291.302 148.109 292.012 148.423 292.536 149.052C293.06 149.681 293.322 150.543 293.322 151.638C293.322 152.325 293.194 152.936 292.938 153.472C292.682 153.996 292.333 154.415 291.89 154.73C291.447 155.033 290.952 155.184 290.405 155.184ZM290.545 154.66C290.696 154.66 290.807 154.52 290.877 154.241C290.958 153.949 291.005 153.6 291.017 153.192C291.04 152.773 291.051 152.366 291.051 151.97C291.051 151.434 291.034 150.916 290.999 150.415C290.964 149.902 290.894 149.483 290.789 149.157C290.685 148.819 290.527 148.65 290.318 148.65C290.155 148.65 290.032 148.79 289.951 149.07C289.881 149.349 289.834 149.693 289.811 150.1C289.788 150.508 289.776 150.91 289.776 151.306C289.776 151.842 289.794 152.366 289.829 152.878C289.875 153.39 289.951 153.816 290.056 154.153C290.172 154.491 290.335 154.66 290.545 154.66ZM290.003 160.792L298.319 148.109L299.21 148.703L290.894 161.386L290.003 160.792ZM298.319 161.386C297.445 161.386 296.746 161.071 296.222 160.442C295.698 159.813 295.436 158.946 295.436 157.839C295.436 157.164 295.559 156.564 295.803 156.04C296.059 155.504 296.403 155.085 296.834 154.782C297.276 154.468 297.771 154.311 298.319 154.311C299.215 154.311 299.926 154.625 300.45 155.254C300.974 155.883 301.236 156.745 301.236 157.839C301.236 158.526 301.108 159.138 300.852 159.674C300.596 160.198 300.246 160.617 299.804 160.931C299.361 161.234 298.866 161.386 298.319 161.386ZM298.458 160.862C298.61 160.862 298.721 160.722 298.79 160.442C298.872 160.151 298.919 159.802 298.93 159.394C298.953 158.975 298.965 158.567 298.965 158.171C298.965 157.636 298.948 157.117 298.913 156.616C298.878 156.104 298.808 155.685 298.703 155.359C298.598 155.021 298.441 154.852 298.231 154.852C298.068 154.852 297.946 154.992 297.865 155.271C297.795 155.551 297.748 155.894 297.725 156.302C297.701 156.71 297.69 157.111 297.69 157.507C297.69 158.043 297.707 158.567 297.742 159.08C297.789 159.592 297.865 160.017 297.969 160.355C298.086 160.693 298.249 160.862 298.458 160.862Z" fill="white"/>
<path d="M294.068 55.3195L308.626 40.7617" stroke="black" stroke-width="2.91156" stroke-linecap="round" stroke-linejoin="round"/>
<path d="M294.068 40.7617H308.626V55.3195" stroke="black" stroke-width="2.91156" stroke-linecap="round" stroke-linejoin="round"/>
<rect x="26" y="124" width="62" height="7" rx="3" fill="#FD6137"/>
<rect x="91" y="124" width="53" height="7" rx="3" fill="#FD6137" fill-opacity="0.57"/>
<rect x="147" y="124" width="44" height="7" rx="3" fill="white"/>
<defs>
<linearGradient id="paint0_linear_1228_7" x1="352.299" y1="107" x2="0" y2="107" gradientUnits="userSpaceOnUse">
<stop stop-color="#D9D9D9"/>
<stop offset="1" stop-color="#400707"/>
</linearGradient>
</defs>
</svg>
