<svg width="353" height="214" viewBox="0 0 353 214" fill="none" xmlns="http://www.w3.org/2000/svg">
<rect width="352.299" height="214" rx="23.2925" fill="url(#paint0_linear_1203_290)"/>
<path d="M28.5336 48.3809V47.915L30.3679 46.9542L37.8506 29.019H39.452L46.8474 46.8668L48.7981 47.915V48.3809H41.1116V47.915L43.6738 46.896L41.5192 41.6551H34.5023L32.3769 46.9251L34.8226 47.915V48.3809H28.5336ZM35.172 40.0538H40.8787L38.0253 33.0369L35.172 40.0538ZM54.9579 48.672C54.0262 48.672 53.2304 48.4197 52.5704 47.915C51.9299 47.4103 51.6096 46.7019 51.6096 45.7896V36.589H49.2803V36.3561L51.8134 35.2497L54.0844 32.047H54.3465V35.2497H58.2188V36.589H54.3465V45.2364C54.3465 45.741 54.56 46.1098 54.987 46.3428C55.4335 46.5757 55.9575 46.6922 56.5593 46.6922C56.9281 46.6922 57.2677 46.6727 57.5783 46.6339C57.8889 46.5951 58.1703 46.5466 58.4227 46.4883H58.51V46.8377C58.2771 47.2842 57.85 47.7015 57.2289 48.0897C56.6272 48.4779 55.8702 48.672 54.9579 48.672ZM63.8762 48.672C62.9445 48.672 62.168 48.4003 61.5469 47.8568C60.9452 47.2939 60.6443 46.5272 60.6443 45.5566C60.6443 44.6055 60.984 43.7903 61.6634 43.1109C62.3621 42.4122 63.5656 41.859 65.2737 41.4513L68.0397 40.8108V38.7727C68.0397 38.0739 67.7777 37.4916 67.2536 37.0258C66.7489 36.5599 66.1569 36.327 65.4775 36.327C64.7593 36.327 64.2547 36.5114 63.9635 36.8802C63.6918 37.249 63.5559 37.7536 63.5559 38.3942V39.3259L63.4103 39.4715H61.8089C61.5178 39.4715 61.314 39.4229 61.1975 39.3259C61.1005 39.2094 61.0519 38.9765 61.0519 38.6271C61.0519 38.2001 61.1781 37.7731 61.4304 37.346C61.7022 36.8996 62.1098 36.5114 62.6533 36.1814C63.2356 35.8126 63.8276 35.5214 64.4294 35.3079C65.0311 35.075 65.6716 34.9585 66.351 34.9585C67.0886 34.9585 67.7971 35.0653 68.4764 35.2788C69.1752 35.4729 69.7381 35.8126 70.1651 36.2979C70.5922 36.7831 70.8057 37.4334 70.8057 38.2486V46.3719C70.9416 46.5078 71.1259 46.6242 71.3589 46.7213C71.6112 46.8183 71.9509 46.8668 72.3779 46.8668H73.397L73.5134 46.9251V47.0998C73.2805 47.5074 72.9214 47.8762 72.4362 48.2062C71.9703 48.5167 71.3977 48.672 70.7183 48.672C70.0584 48.672 69.5246 48.5167 69.117 48.2062C68.7094 47.8762 68.4182 47.4297 68.2435 46.8668H68.0397C67.535 47.3715 66.9139 47.7985 66.1763 48.1479C65.4581 48.4973 64.6914 48.672 63.8762 48.672ZM63.2938 44.9161C63.2938 46.1195 64.0023 46.7213 65.4193 46.7213C65.8463 46.7213 66.2539 46.6824 66.6421 46.6048C67.0498 46.5078 67.5156 46.3525 68.0397 46.139V41.8298C66.6421 42.1016 65.6037 42.3927 64.9243 42.7033C64.245 43.0139 63.7985 43.3536 63.585 43.7224C63.3909 44.0717 63.2938 44.4697 63.2938 44.9161ZM82.4553 55.0775V54.6116L84.5517 53.7673V46.9251H84.377C83.0377 48.0897 81.611 48.672 80.097 48.672C79.1459 48.672 78.2918 48.4294 77.5348 47.9441C76.7778 47.4589 76.1761 46.7795 75.7296 45.906C75.3026 45.0131 75.0891 43.9553 75.0891 42.7324C75.0891 41.0825 75.3997 39.685 76.0208 38.5398C76.6613 37.3751 77.5154 36.492 78.583 35.8902C79.6505 35.2691 80.8249 34.9585 82.106 34.9585C82.7853 34.9585 83.387 35.0168 83.9111 35.1332C84.4546 35.2303 85.0078 35.3856 85.5707 35.5991L87.0847 34.9585H87.2885V53.709L89.1519 54.6116V55.0775H82.4553ZM77.826 42.0045C77.826 43.5962 78.2239 44.7608 79.0197 45.4984C79.8349 46.2166 80.7958 46.5757 81.9022 46.5757C82.2904 46.5757 82.7174 46.5078 83.1832 46.3719C83.6491 46.236 84.1052 46.0322 84.5517 45.7605V38.8309C84.5517 38.171 84.5323 37.7731 84.4934 37.6372C84.4546 37.4819 84.3673 37.3363 84.2314 37.2005C83.8626 36.8899 83.455 36.6764 83.0085 36.5599C82.5621 36.4434 82.0963 36.3852 81.611 36.3852C80.9316 36.3852 80.3008 36.5696 79.7185 36.9384C79.1362 37.2878 78.6703 37.8798 78.3209 38.7145C77.9909 39.5297 77.826 40.6264 77.826 42.0045ZM96.6777 48.672C95.5324 48.672 94.591 48.3809 93.8534 47.7985C93.1353 47.2162 92.7762 46.3622 92.7762 45.2364V36.6181L90.9128 35.7156V35.2497H95.513V43.897C95.513 44.7123 95.7557 45.3334 96.2409 45.7605C96.7456 46.1875 97.3958 46.401 98.1917 46.401C98.6769 46.401 99.2107 46.3234 99.793 46.1681C100.375 45.9934 100.841 45.741 101.191 45.4111V36.6181L99.2107 35.7156V35.2497H103.957V47.0707L105.966 47.915V48.3809H101.191V46.5466H101.045C100.327 47.2648 99.628 47.7985 98.9487 48.1479C98.2693 48.4973 97.5123 48.672 96.6777 48.672ZM114.274 48.672C112.372 48.672 110.867 48.0994 109.761 46.9542C108.655 45.809 108.101 44.2853 108.101 42.383C108.101 40.9467 108.393 39.6656 108.975 38.5398C109.577 37.414 110.363 36.5405 111.333 35.9194C112.323 35.2788 113.391 34.9585 114.536 34.9585C116.089 34.9585 117.302 35.4923 118.175 36.5599C119.049 37.6081 119.495 39.1221 119.515 41.1019L119.369 41.2475H110.78C110.8 42.1404 110.964 42.9653 111.275 43.7224C111.605 44.4794 112.119 45.0908 112.818 45.5566C113.536 46.0225 114.497 46.2554 115.701 46.2554C116.807 46.2554 118.059 45.8866 119.457 45.149H119.544V45.4984C119.078 46.3913 118.389 47.1483 117.477 47.7694C116.564 48.3712 115.497 48.672 114.274 48.672ZM114.012 36.2396C113.158 36.2396 112.449 36.5599 111.886 37.2005C111.343 37.841 110.994 38.7436 110.838 39.9082H117.04C116.846 38.5883 116.496 37.6469 115.992 37.084C115.487 36.5211 114.827 36.2396 114.012 36.2396ZM28.5336 85.3809V84.915L30.3679 83.9542L37.8506 66.019H39.452L46.8474 83.8668L48.7981 84.915V85.3809H41.1116V84.915L43.6738 83.896L41.5192 78.6551H34.5023L32.3769 83.9251L34.8226 84.915V85.3809H28.5336ZM35.172 77.0538H40.8787L38.0253 70.0369L35.172 77.0538ZM50.9486 85.3809V84.915L52.812 83.9833V75.2777L51.0359 73.8219V73.589L55.0539 71.9585H55.2577L55.5197 74.1131H55.6653C56.4029 73.3949 57.1114 72.8611 57.7908 72.5117C58.4701 72.1429 59.2368 71.9585 60.0909 71.9585C61.2167 71.9585 62.1484 72.2497 62.886 72.832C63.643 73.3949 64.0215 74.249 64.0215 75.3942V83.9833L65.8558 84.915V85.3809H59.3339V84.915L61.2555 83.9833V76.7335C61.2555 75.8989 61.0032 75.2777 60.4985 74.8701C59.9938 74.4431 59.3436 74.2296 58.5478 74.2296C58.0625 74.2296 57.5287 74.3072 56.9464 74.4625C56.3641 74.6178 55.8982 74.8604 55.5489 75.1904V83.9833L57.4705 84.915V85.3809H50.9486ZM72.9846 85.672C72.0529 85.672 71.257 85.4197 70.5971 84.915C69.9565 84.4103 69.6363 83.7019 69.6363 82.7896V73.589H67.307V73.3561L69.8401 72.2497L72.1111 69.047H72.3731V72.2497H76.2455V73.589H72.3731V82.2364C72.3731 82.741 72.5867 83.1098 73.0137 83.3428C73.4601 83.5757 73.9842 83.6922 74.5859 83.6922C74.9547 83.6922 75.2944 83.6727 75.605 83.6339C75.9155 83.5951 76.197 83.5466 76.4493 83.4883H76.5367V83.8377C76.3038 84.2842 75.8767 84.7015 75.2556 85.0897C74.6539 85.4779 73.8969 85.672 72.9846 85.672ZM84.9024 85.672C83.0002 85.672 81.4959 85.0994 80.3895 83.9542C79.2831 82.809 78.7299 81.2853 78.7299 79.383C78.7299 77.9467 79.0211 76.6656 79.6034 75.5398C80.2051 74.414 80.9912 73.5405 81.9617 72.9194C82.9517 72.2788 84.0193 71.9585 85.1645 71.9585C86.7173 71.9585 87.9305 72.4923 88.8039 73.5599C89.6774 74.6081 90.1238 76.1221 90.1432 78.1019L89.9977 78.2475H81.4085C81.428 79.1404 81.5929 79.9653 81.9035 80.7224C82.2335 81.4794 82.7479 82.0908 83.4466 82.5566C84.1648 83.0225 85.1256 83.2554 86.3291 83.2554C87.4355 83.2554 88.6875 82.8866 90.085 82.149H90.1724V82.4984C89.7065 83.3913 89.0174 84.1483 88.1051 84.7694C87.1929 85.3712 86.1253 85.672 84.9024 85.672ZM84.6404 73.2396C83.7863 73.2396 83.0778 73.5599 82.5149 74.2005C81.9715 74.841 81.6221 75.7436 81.4668 76.9082H87.6684C87.4743 75.5883 87.1249 74.6469 86.6202 74.084C86.1156 73.5211 85.4556 73.2396 84.6404 73.2396ZM99.1468 85.672C97.264 85.672 95.7694 85.0994 94.663 83.9542C93.5566 82.809 93.0034 81.2853 93.0034 79.383C93.0034 77.9467 93.2946 76.6656 93.8769 75.5398C94.4786 74.414 95.2938 73.5405 96.3226 72.9194C97.3513 72.2788 98.5257 71.9585 99.8456 71.9585C100.661 71.9585 101.437 72.0944 102.175 72.3662C102.912 72.6185 103.475 72.9582 103.864 73.3852C104.155 73.7346 104.3 74.0258 104.3 74.2587C104.3 74.414 104.271 74.5401 104.213 74.6372C104.174 74.7148 104.087 74.8216 103.951 74.9575L102.757 75.9183H102.553L101.563 74.579C101.272 74.1713 100.923 73.8511 100.515 73.6181C100.108 73.3658 99.5932 73.2396 98.9721 73.2396C97.9434 73.2396 97.1378 73.6667 96.5555 74.5207C95.9732 75.3748 95.682 76.5491 95.682 78.0437C95.682 78.956 95.8276 79.8101 96.1188 80.6059C96.4293 81.4017 96.934 82.0423 97.6328 82.5275C98.351 83.0128 99.3215 83.2554 100.544 83.2554C101.088 83.2554 101.67 83.1681 102.291 82.9934C102.912 82.7993 103.572 82.5178 104.271 82.149H104.359V82.4984C103.912 83.3913 103.233 84.1483 102.32 84.7694C101.408 85.3712 100.35 85.672 99.1468 85.672ZM110.195 68.5811C109.671 68.5811 109.234 68.4064 108.885 68.057C108.536 67.7077 108.361 67.2709 108.361 66.7468C108.361 66.2034 108.536 65.7666 108.885 65.4366C109.234 65.0873 109.671 64.9126 110.195 64.9126C110.719 64.9126 111.156 65.0873 111.505 65.4366C111.855 65.7666 112.03 66.2034 112.03 66.7468C112.03 67.2709 111.855 67.7077 111.505 68.057C111.156 68.4064 110.719 68.5811 110.195 68.5811ZM107.051 85.3809V84.915L108.914 83.9833V75.2777L107.138 73.7928V73.5599L111.447 71.9585H111.651V83.9833L113.456 84.915V85.3809H107.051ZM116.174 92.0775V91.6116L118.038 90.6799V75.3068L116.262 73.8219V73.589L120.28 71.9585H120.484L120.716 73.7346H120.92C121.638 73.1135 122.337 72.667 123.017 72.3953C123.696 72.1041 124.434 71.9585 125.229 71.9585C126.181 71.9585 127.035 72.2109 127.792 72.7156C128.549 73.2202 129.15 73.9384 129.597 74.8701C130.043 75.7824 130.266 76.8888 130.266 78.1893C130.266 79.7615 129.966 81.1106 129.364 82.2364C128.762 83.3428 127.957 84.1968 126.947 84.7985C125.938 85.3809 124.822 85.672 123.599 85.672C122.551 85.672 121.609 85.575 120.775 85.3809V90.6799L122.9 91.6116V92.0775H116.174ZM123.453 74.0549C122.522 74.0549 121.629 74.3169 120.775 74.841V83.1098C121.279 83.5369 121.803 83.8377 122.347 84.0124C122.91 84.1677 123.531 84.2453 124.21 84.2453C124.793 84.2453 125.336 84.0804 125.841 83.7504C126.346 83.4204 126.743 82.8866 127.035 82.149C127.345 81.392 127.5 80.3827 127.5 79.121C127.5 77.937 127.316 76.9761 126.947 76.2385C126.578 75.5009 126.083 74.9575 125.462 74.6081C124.861 74.2393 124.191 74.0549 123.453 74.0549ZM136.182 85.672C135.25 85.672 134.474 85.4003 133.853 84.8568C133.251 84.2939 132.95 83.5272 132.95 82.5566C132.95 81.6055 133.29 80.7903 133.969 80.1109C134.668 79.4122 135.871 78.859 137.579 78.4513L140.345 77.8108V75.7727C140.345 75.0739 140.083 74.4916 139.559 74.0258C139.055 73.5599 138.463 73.327 137.783 73.327C137.065 73.327 136.56 73.5114 136.269 73.8802C135.998 74.249 135.862 74.7536 135.862 75.3942V76.3259L135.716 76.4715H134.115C133.824 76.4715 133.62 76.4229 133.503 76.3259C133.406 76.2094 133.358 75.9765 133.358 75.6271C133.358 75.2001 133.484 74.7731 133.736 74.346C134.008 73.8996 134.416 73.5114 134.959 73.1814C135.541 72.8126 136.133 72.5214 136.735 72.3079C137.337 72.075 137.977 71.9585 138.657 71.9585C139.394 71.9585 140.103 72.0653 140.782 72.2788C141.481 72.4729 142.044 72.8126 142.471 73.2979C142.898 73.7831 143.111 74.4334 143.111 75.2486V83.3719C143.247 83.5078 143.432 83.6242 143.665 83.7213C143.917 83.8183 144.257 83.8668 144.684 83.8668H145.703L145.819 83.9251V84.0998C145.586 84.5074 145.227 84.8762 144.742 85.2062C144.276 85.5167 143.703 85.672 143.024 85.672C142.364 85.672 141.83 85.5167 141.423 85.2062C141.015 84.8762 140.724 84.4297 140.549 83.8668H140.345C139.841 84.3715 139.22 84.7985 138.482 85.1479C137.764 85.4973 136.997 85.672 136.182 85.672ZM135.6 81.9161C135.6 83.1195 136.308 83.7213 137.725 83.7213C138.152 83.7213 138.56 83.6824 138.948 83.6048C139.356 83.5078 139.821 83.3525 140.345 83.139V78.8298C138.948 79.1016 137.909 79.3927 137.23 79.7033C136.551 80.0139 136.104 80.3536 135.891 80.7224C135.697 81.0717 135.6 81.4697 135.6 81.9161ZM152.315 85.672C151.364 85.672 150.51 85.4294 149.753 84.9441C148.996 84.4589 148.394 83.7795 147.948 82.906C147.502 82.0131 147.278 80.9553 147.278 79.7324C147.278 78.0825 147.589 76.685 148.21 75.5398C148.851 74.3751 149.695 73.492 150.743 72.8902C151.811 72.2691 152.985 71.9585 154.266 71.9585C154.79 71.9585 155.256 71.978 155.664 72.0168C156.071 72.0556 156.44 72.1235 156.77 72.2206V66.8633L154.848 65.3784V65.1455L159.303 63.5441H159.507V84.0707L161.574 84.915V85.3809H157.061L156.799 83.896H156.624C155.887 84.5171 155.178 84.9732 154.499 85.2644C153.82 85.5361 153.092 85.672 152.315 85.672ZM150.044 79.0045C150.044 80.5962 150.442 81.7608 151.238 82.4984C152.034 83.2166 152.985 83.5757 154.091 83.5757C155.023 83.5757 155.916 83.3039 156.77 82.7605V74.5498C156.343 74.181 155.916 73.8996 155.489 73.7055C155.081 73.492 154.606 73.3852 154.062 73.3852C153.325 73.3852 152.655 73.5696 152.053 73.9384C151.452 74.2878 150.966 74.8798 150.598 75.7145C150.229 76.5297 150.044 77.6264 150.044 79.0045ZM170.438 85.672C169.137 85.672 167.992 85.3712 167.002 84.7694C166.032 84.1483 165.265 83.3234 164.702 82.2946C164.159 81.2464 163.887 80.0818 163.887 78.8007C163.887 77.5196 164.159 76.3647 164.702 75.336C165.265 74.2878 166.032 73.4629 167.002 72.8611C167.992 72.2594 169.137 71.9585 170.438 71.9585C171.738 71.9585 172.874 72.2594 173.844 72.8611C174.815 73.4629 175.572 74.2878 176.115 75.336C176.678 76.3647 176.96 77.5196 176.96 78.8007C176.96 80.0818 176.678 81.2464 176.115 82.2946C175.572 83.3234 174.815 84.1483 173.844 84.7694C172.874 85.3712 171.738 85.672 170.438 85.672ZM170.816 84.3909C171.554 84.3909 172.156 84.1483 172.621 83.663C173.087 83.1778 173.427 82.5566 173.641 81.7996C173.854 81.0426 173.961 80.2371 173.961 79.383C173.961 78.3543 173.825 77.3741 173.553 76.4424C173.301 75.4912 172.893 74.7148 172.33 74.1131C171.767 73.5114 171.03 73.2105 170.118 73.2105C169.38 73.2105 168.769 73.4531 168.283 73.9384C167.798 74.4043 167.439 75.0157 167.206 75.7727C166.992 76.5297 166.886 77.3352 166.886 78.1893C166.886 79.218 167.022 80.208 167.293 81.1591C167.565 82.1102 167.992 82.8866 168.574 83.4883C169.157 84.0901 169.904 84.3909 170.816 84.3909Z" fill="white"/>
<path d="M35.2069 170.389V169.55L40.3953 167.873V142.455L32.01 145.966V143.661L45.3741 135.799H50.0909V167.873L54.7552 169.55V170.389H35.2069ZM65.688 170.389C66.7012 167.943 67.9765 165.288 69.5138 162.423C71.0861 159.558 72.8155 156.588 74.7022 153.513C76.5889 150.404 78.5455 147.294 80.5719 144.185H62.2291V135.799H86.8609V138.42C85.1489 141.704 83.4544 145.128 81.7773 148.692C80.1003 152.255 78.5629 155.872 77.1654 159.54C75.8028 163.209 74.7546 166.825 74.0209 170.389H65.688ZM93.2342 170.389V168.03C95.9245 165.235 98.1606 162.877 99.9425 160.955C101.759 159.034 103.209 157.374 104.292 155.976C105.375 154.544 106.197 153.216 106.756 151.993C107.315 150.771 107.681 149.478 107.856 148.115C108.031 146.753 108.118 145.163 108.118 143.346C108.118 142.438 107.996 141.582 107.751 140.778C107.542 139.94 107.14 139.276 106.546 138.787C105.987 138.262 105.201 138 104.188 138C102.615 138 101.445 138.542 100.676 139.625C99.9075 140.708 99.5232 142.228 99.5232 144.185V146.753L99.1039 147.277H94.7541C94.0553 147.277 93.5312 147.154 93.1818 146.91C92.8324 146.665 92.6577 146.054 92.6577 145.076C92.6577 143.992 92.9897 142.909 93.6535 141.826C94.3523 140.743 95.5402 139.59 97.2173 138.367C98.6148 137.354 100.012 136.585 101.41 136.061C102.807 135.537 104.624 135.275 106.86 135.275C109.166 135.275 111.193 135.694 112.94 136.533C114.687 137.337 116.032 138.437 116.975 139.835C117.953 141.232 118.443 142.805 118.443 144.551C118.443 145.565 118.32 146.543 118.076 147.486C117.831 148.395 117.377 149.356 116.713 150.369C116.049 151.347 115.088 152.448 113.831 153.67C112.573 154.858 110.931 156.256 108.904 157.863C106.878 159.47 104.362 161.34 101.357 163.471H115.822L119.124 158.178H119.962L119.438 170.389H93.2342Z" fill="white"/>
<rect x="222.734" y="139.756" width="106.272" height="33.483" rx="16.7415" fill="black" fill-opacity="0.81"/>
<path d="M241.775 156.966V155.953H244.902V152.791H245.985V155.953H249.113V156.966H245.985V160.128H244.902V156.966H241.775ZM253.194 161.211V160.931L254.923 160.372V151.9L252.128 153.07V152.302L256.583 149.681H258.155V160.372L259.71 160.931V161.211H253.194ZM263.668 161.211V160.931L265.398 160.372V151.9L262.603 153.07V152.302L267.057 149.681H268.63V160.372L270.184 160.931V161.211H263.668ZM274.073 161.298C273.677 161.298 273.334 161.159 273.043 160.879C272.763 160.588 272.623 160.244 272.623 159.848C272.623 159.452 272.763 159.115 273.043 158.835C273.334 158.544 273.677 158.398 274.073 158.398C274.469 158.398 274.807 158.544 275.086 158.835C275.378 159.115 275.523 159.452 275.523 159.848C275.523 160.244 275.378 160.588 275.086 160.879C274.807 161.159 274.469 161.298 274.073 161.298ZM278.725 161.211C279.063 160.396 279.488 159.511 280 158.556C280.524 157.601 281.101 156.611 281.73 155.586C282.359 154.549 283.011 153.513 283.686 152.476H277.572V149.681H285.783V150.555C285.212 151.649 284.647 152.791 284.088 153.979C283.529 155.167 283.017 156.372 282.551 157.595C282.096 158.818 281.747 160.023 281.503 161.211H278.725ZM287.907 161.211V160.425C288.804 159.493 289.549 158.707 290.143 158.066C290.749 157.426 291.232 156.873 291.593 156.407C291.954 155.929 292.228 155.487 292.414 155.079C292.6 154.672 292.723 154.241 292.781 153.786C292.839 153.332 292.868 152.802 292.868 152.197C292.868 151.894 292.828 151.609 292.746 151.341C292.676 151.061 292.542 150.84 292.344 150.677C292.158 150.502 291.896 150.415 291.558 150.415C291.034 150.415 290.644 150.595 290.388 150.956C290.131 151.317 290.003 151.824 290.003 152.476V153.332L289.864 153.507H288.414C288.181 153.507 288.006 153.466 287.89 153.385C287.773 153.303 287.715 153.099 287.715 152.773C287.715 152.412 287.825 152.051 288.047 151.69C288.28 151.329 288.676 150.945 289.235 150.537C289.7 150.199 290.166 149.943 290.632 149.768C291.098 149.594 291.704 149.506 292.449 149.506C293.218 149.506 293.893 149.646 294.475 149.926C295.058 150.194 295.506 150.56 295.821 151.026C296.147 151.492 296.31 152.016 296.31 152.599C296.31 152.936 296.269 153.262 296.187 153.577C296.106 153.88 295.955 154.2 295.733 154.538C295.512 154.864 295.192 155.231 294.772 155.638C294.353 156.034 293.806 156.5 293.13 157.036C292.455 157.571 291.616 158.195 290.615 158.905H295.436L296.537 157.141H296.816L296.642 161.211H287.907ZM300.88 155.184C300.006 155.184 299.308 154.87 298.784 154.241C298.259 153.612 297.997 152.744 297.997 151.638C297.997 150.962 298.12 150.362 298.364 149.838C298.621 149.303 298.964 148.883 299.395 148.581C299.838 148.266 300.333 148.109 300.88 148.109C301.777 148.109 302.487 148.423 303.011 149.052C303.535 149.681 303.797 150.543 303.797 151.638C303.797 152.325 303.669 152.936 303.413 153.472C303.157 153.996 302.807 154.415 302.365 154.73C301.922 155.033 301.427 155.184 300.88 155.184ZM301.02 154.66C301.171 154.66 301.282 154.52 301.352 154.241C301.433 153.949 301.48 153.6 301.491 153.192C301.515 152.773 301.526 152.366 301.526 151.97C301.526 151.434 301.509 150.916 301.474 150.415C301.439 149.902 301.369 149.483 301.264 149.157C301.159 148.819 301.002 148.65 300.793 148.65C300.63 148.65 300.507 148.79 300.426 149.07C300.356 149.349 300.309 149.693 300.286 150.1C300.263 150.508 300.251 150.91 300.251 151.306C300.251 151.842 300.268 152.366 300.303 152.878C300.35 153.39 300.426 153.816 300.531 154.153C300.647 154.491 300.81 154.66 301.02 154.66ZM300.478 160.792L308.794 148.109L309.684 148.703L301.369 161.386L300.478 160.792ZM308.794 161.386C307.92 161.386 307.221 161.071 306.697 160.442C306.173 159.813 305.911 158.946 305.911 157.839C305.911 157.164 306.033 156.564 306.278 156.04C306.534 155.504 306.878 155.085 307.309 154.782C307.751 154.468 308.246 154.311 308.794 154.311C309.69 154.311 310.401 154.625 310.925 155.254C311.449 155.883 311.711 156.745 311.711 157.839C311.711 158.526 311.583 159.138 311.327 159.674C311.07 160.198 310.721 160.617 310.278 160.931C309.836 161.234 309.341 161.386 308.794 161.386ZM308.933 160.862C309.085 160.862 309.195 160.722 309.265 160.442C309.347 160.151 309.393 159.802 309.405 159.394C309.428 158.975 309.44 158.567 309.44 158.171C309.44 157.636 309.422 157.117 309.387 156.616C309.353 156.104 309.283 155.685 309.178 155.359C309.073 155.021 308.916 154.852 308.706 154.852C308.543 154.852 308.421 154.992 308.339 155.271C308.269 155.551 308.223 155.894 308.2 156.302C308.176 156.71 308.165 157.111 308.165 157.507C308.165 158.043 308.182 158.567 308.217 159.08C308.264 159.592 308.339 160.017 308.444 160.355C308.561 160.693 308.724 160.862 308.933 160.862Z" fill="white"/>
<path d="M294.068 55.3195L308.626 40.7617" stroke="black" stroke-width="2.91156" stroke-linecap="round" stroke-linejoin="round"/>
<path d="M294.068 40.7617H308.626V55.3195" stroke="black" stroke-width="2.91156" stroke-linecap="round" stroke-linejoin="round"/>
<defs>
<linearGradient id="paint0_linear_1203_290" x1="352.299" y1="107" x2="0" y2="107" gradientUnits="userSpaceOnUse">
<stop stop-color="#D9D9D9"/>
<stop offset="1" stop-color="#0A674C"/>
</linearGradient>
</defs>
</svg>
